<svg xmlns="http://www.w3.org/2000/svg" height="100" width="100" viewBox="0 0 100 100"><path d="M99.7 61.6c-1.9-4-3.9-8.1-5.8-12.1 -1-2.1-2-4.3-2.9-6.4 -0.6-1.4-1.7-1.7-2.9-0.9 -2.5 1.7-9.9 6.8-14.1 6.8 -2.3 0-4.4-0.3-6.6-0.9 -1.4-0.4-2.8-0.9-4.1-1.4 -2.1-0.8-4.2-1.7-6.1-1.8 -1.4 0-2.4 0.1-3.2 0.8l-0.2 0.2 -1.7 1.6c0 0 0 0 0 0l-6.6 6c-0.1 0.1-0.2 0.2-0.4 0.4 -0.1 0.1-0.3 0.2-0.4 0.3l-6.6 6c-0.1 0.1-0.2 0.2-0.3 0.3 -0.1 0.1-0.1 0.1-0.2 0.2 -0.2 0.2-0.3 0.5-0.4 0.8 -0.4 2 1.7 4.8 3.7 5.2 2.6 0.5 5 0 7.1-1.5 1.3-0.9 2.7-2 4.2-3.1 0.4-0.3 0.8-0.6 1.2-0.9 0 0 0.1 0 0.1-0.1 0.4-0.3 0.8-0.6 1.1-0.9 0 0 0 0 0 0 1.1-0.7 2.4-1.1 3.8-1.1 0.6 0 1.3 0.1 1.9 0.2 1 0.3 1.9 0.7 2.7 1.4 0 0 0 0 0.1 0.1 0.1 0.1 0.3 0.2 0.4 0.3 0 0 0.1 0.1 0.1 0.1 0.3 0.3 0.6 0.5 0.9 0.8 0.9 0.8 1.7 1.7 2.5 2.5l3 3c0.1 0.1 0.2 0.3 0.4 0.4 0.1 0.1 0.3 0.2 0.4 0.4l6.3 6.3c0 0 0 0 0 0l2.7 2.7c0.8 0.4 1.7 0.3 2.5-0.4 1.3-1.1 3.4-2.8 4.8-3.8 2-1.6 10.1-7.3 12.1-8.9C100 63.6 100.2 62.7 99.7 61.6z"/><path d="M28.1 71.6c-1.4-1.4-3.7-1.4-5.1 0l-6.3 6.3c-1.4 1.4-1.4 3.7 0 5.1 1.4 1.4 3.7 1.4 5.1 0l6.3-6.3C29.5 75.3 29.5 73 28.1 71.6z"/><path d="M35.6 77.3c-1.4-1.4-3.7-1.4-5.1 0l-6.3 6.3c-1.4 1.4-1.4 3.7 0 5.1 1.4 1.4 3.7 1.4 5.1 0l6.3-6.3C37 81 37 78.7 35.6 77.3z"/><path d="M43.5 81.9c-1.4-1.4-3.7-1.4-5.1 0l-6.3 6.3c-1.4 1.4-1.4 3.7 0 5.1 1.4 1.4 3.7 1.4 5.1 0l6.3-6.3C44.9 85.6 44.9 83.4 43.5 81.9z"/><path d="M51.6 92c0.8-1.1 0.9-2.5 0.3-3.6 -0.2-0.4-0.4-0.7-0.7-1 -0.3-0.3-0.6-0.5-1-0.7 -1.1-0.5-2.4-0.5-3.4 0.2 -0.2 0.1-0.5 0.3-0.7 0.5l-6.3 6.3c-1.4 1.4-1.4 3.7 0 5.1 1.4 1.4 3.7 1.4 5.1 0l6.3-6.3C51.3 92.4 51.4 92.2 51.6 92z"/><path d="M69.9 71.1c-0.1-0.1-0.2-0.2-0.2-0.2l-1.3-1.3 -0.2-0.2 -2-2.1 -1.2-1.2 -1.7-1.8 -0.1-0.1 -0.5-0.5 -0.7-0.7c-0.3-0.3-0.6-0.6-1-0.8 -0.4-0.3-0.9-0.5-1.4-0.6 -0.3-0.1-0.7-0.1-1.1-0.1 -0.9 0-1.7 0.2-2.5 0.7 -0.2 0.1-0.3 0.2-0.5 0.3 -0.2 0.1-0.3 0.3-0.5 0.4 0 0-0.1 0-0.1 0.1 -0.4 0.4-0.9 0.8-1.4 1.1 -0.5 0.4-0.9 0.7-1.4 1.1 -0.3 0.2-0.6 0.4-0.8 0.6v0c-1.3 0.9-2.7 1.7-4.1 2.5 -4.7 2.3-9.4 1.2-12.1-3.6 -0.1-0.2-0.2-0.4-0.3-0.6 -0.1-0.3-0.2-0.5-0.2-0.8 -0.2-1.5 0.3-3.1 1.4-4.1 3-2.8 6-5.6 9-8.5 1.1-1 2.2-2.1 3.4-3.2 0.3-0.3 0.6-0.5 0.9-0.8 -0.9-0.7-1.8-0.9-2.8-0.9 -0.1 0-0.2 0-0.3 0 -3.7-0.2-7.2 0.6-10.7 1.5 -0.2 0-0.3 0.1-0.4 0.1 -0.1 0-0.2 0-0.2 0.1 -0.5 0.2-0.9 0.3-1.4 0.4 -0.2 0-0.3 0.1-0.5 0.1 -1 0.3-2 0.6-3 0.7 -1.5 0.2-2.8 0.2-3.6 0.2 -1.7-0.1-3.8-0.8-6-1.9 -3.3-1.6-6.6-3.9-8.1-4.9 -0.6-0.4-1.1-0.5-1.6-0.4 -0.5 0.1-1 0.6-1.3 1.3 -1 2.1-1.9 4.3-2.9 6.4 -1.9 4-3.9 8.1-5.8 12.1 -0.5 1.1-0.3 2 0.7 2.7 2.1 1.6 10.1 7.3 12.1 8.9 0.3 0.2 0.6 0.5 1 0.8 0 0 0.1 0.1 0.1 0.1 0.7 0.5 1.2 0.9 1.7 1.3l5.4-5.4c1.1-1.1 2.6-1.7 4.1-1.7 1.2 0 2.3 0.3 3.2 1 0.3 0.2 0.6 0.5 0.9 0.8 0.1 0.1 0.3 0.3 0.4 0.4 0.1 0.1 0.2 0.2 0.2 0.3 0.1 0.1 0.2 0.2 0.2 0.3 0.1 0.1 0.2 0.3 0.2 0.4 0 0 0 0.1 0.1 0.1 0 0.1 0.1 0.2 0.1 0.3 0 0.1 0.1 0.2 0.1 0.3 0 0.1 0.1 0.2 0.1 0.3 0.1 0.2 0.1 0.3 0.1 0.4 0 0.1 0.1 0.2 0.1 0.4 0 0.2 0 0.3 0.1 0.5 0 0.2 0 0.4 0 0.6 0 0 0.1 0 0.1 0 0.2 0 0.3-0.1 0.4-0.1 0.1 0 0.3-0.1 0.4-0.1 0.1 0 0.2 0 0.3 0 0.2 0 0.3 0 0.4 0 0.2 0 0.4 0 0.5 0 0 0 0.1 0 0.1 0 0.3 0 0.7 0.1 1 0.2 0.5 0.1 0.9 0.3 1.3 0.6 0 0 0 0 0 0 0.1 0.1 0.2 0.1 0.3 0.2 0.1 0.1 0.2 0.1 0.3 0.2 0.1 0.1 0.2 0.1 0.2 0.2 0.1 0.1 0.2 0.2 0.3 0.3 0.1 0.1 0.2 0.3 0.4 0.4 0 0.1 0.1 0.1 0.1 0.2 0.1 0.1 0.2 0.2 0.3 0.3 0.1 0.1 0.2 0.3 0.3 0.4 0.2 0.3 0.3 0.7 0.4 1.1 0 0.2 0.1 0.3 0.1 0.4 0 0.2 0.1 0.3 0.1 0.5 0.7-0.3 1.4-0.4 2.1-0.4 1.6 0 3 0.6 4.1 1.7 0.7 0.7 1.2 1.5 1.4 2.4 0.1 0.4 0.2 0.8 0.2 1.2 0 0.2 0 0.3 0 0.5 0.2-0.1 0.5-0.2 0.8-0.2 0.2 0 0.3 0 0.5-0.1h0.1c0.2 0 0.4 0 0.5 0 0.1 0 0.2 0 0.4 0 1.4 0.1 2.8 0.7 3.8 1.7 1.1 1.1 1.7 2.6 1.7 4.1 0 0.2 0 0.4 0 0.5 0 0 0 0 0 0 0 0.1 0 0.3 0 0.4 0 0 0 0 0 0.1 0 0.2-0.1 0.4-0.2 0.7 0 0.1-0.1 0.3-0.1 0.4 0 0 0 0 0 0 0 0.1 0 0.1-0.1 0.2 0 0.1-0.1 0.2-0.1 0.3 0 0.1-0.1 0.1-0.1 0.2 -0.1 0.3-0.3 0.5-0.5 0.8 0 0-0.1 0.1-0.1 0.1 0 0.1-0.1 0.1-0.1 0.2 -0.1 0.1-0.2 0.2-0.3 0.3l-5.2 5.2c0.7 0.4 1.5 0.6 2.4 0.6 1.1 0 2.2-0.4 3.1-1.1 0 0 0 0 0.1 0 0.1-0.1 0.2-0.2 0.3-0.3 0.5-0.5 0.9-1.1 1.1-1.7 0.2-0.5 0.3-1.1 0.3-1.6 0.7 0.4 1.6 0.6 2.4 0.6 1.3 0 2.6-0.5 3.5-1.5 1.2-1.2 1.6-2.8 1.4-4.3 0.9 0.8 2 1.2 3.2 1.2 1.3 0 2.6-0.5 3.5-1.5 1.2-1.2 1.7-2.9 1.3-4.5 0.8 0.5 1.6 0.7 2.5 0.7 1.3 0 2.6-0.5 3.5-1.5 1.9-1.9 1.9-5.1 0-7L69.9 71.1z"/></svg>