<svg xmlns="http://www.w3.org/2000/svg" height="100" width="100" viewBox="0 0 100 100"><path d="M77.8 34.2c-0.7 0-1.2 0-2.3 0 -0.1 0-0.1 0-0.2 0 -6 0-10.9-4.9-10.9-11 0-6.1 4.9-11 10.9-11 5.8 0 10.2 4.9 10.9 10.3 0.7 5.4 6.5 4.3 8.5 3.8C90.7 31.2 84.6 34 77.8 34.2"/><path d="M95 60.7c-0.4 1.9-2 3.3-4 3.3H65.2c-2.3-4.6-5.3-8.5-9-11.5 3.3-8.5 10.3-14.4 18.5-14.4C85.2 38.1 93.9 48 95 60.7"/><path d="M59.1 87.8H10.9c-2.8 0-5.2-2-5.9-4.7 1.6-18.3 14.4-32.5 30-32.5s28.4 14.2 30 32.5C64.4 85.8 62 87.8 59.1 87.8"/><path d="M35 44.4c-8.3 0-15.1-6.9-15.1-15.5 0-8.6 6.8-15.5 15.1-15.5s15.1 6.9 15.1 15.5C50.1 37.4 43.3 44.4 35 44.4"/></svg>