<svg xmlns="http://www.w3.org/2000/svg" viewBox="0 0 862.8 162" width="863" height="162"><style>.a{stroke-width:2;}</style><style type="text/css">    
	.st0{opacity:0.2;fill:#35A4D6;}
	.st1{opacity:0.2;fill:#934A91;}
	.st2{opacity:0.2;fill:#F3E22B;}
	.st3{opacity:0.2;fill:#040006;}
	.st4{fill:#FFFFFF;}
</style><circle class="st0" cx="80.9" cy="81.1" r="80.9" style="fill:#35a4d6;opacity:0.2"/><circle class="st1" cx="163.2" cy="80.9" r="80.9" style="fill:#934a91;opacity:0.2"/><circle class="st2" cx="242.7" cy="81" r="80.9" style="fill:#f3e22b;opacity:0.2"/><circle class="st3" cx="324.6" cy="81" r="80.9" style="fill:#040006;opacity:0.2"/><path d="m124.4 116.1h-8.7L86.8 61.4 58.1 116.1h-8.9l33.1-62.9v0l4.6-8.6 4.3 8.1z"/><path d="m194.9 71.7c0 8.9-3.2 15.7-9.7 20.2-4 2.8-8 4.5-12 5L193 116.1H182.3L163 97.4H152.8V116.1h-7.3V46.1h22.7c4.4 0 8.9 1.1 13.4 3.3 8.9 4.3 13.3 11.7 13.3 22.3zm-26.7 18.4c3.4 0 6.7-0.8 10-2.4 6.1-3.1 9.2-8.4 9.2-16 0-7.6-3.1-12.9-9.2-16-3.2-1.6-6.6-2.4-10-2.4h-15.4v36.8z"/><path d="M271 108.7V116H217.1V45.9h7.3V108.7Z"/><path d="m317.9 44.9c9.9 0 18.4 3.5 25.5 10.5 7 7.1 10.5 15.5 10.5 25.5 0 10-3.5 18.4-10.5 25.5-7.1 7-15.5 10.5-25.5 10.5-10 0-18.4-3.5-25.5-10.5-7-7.1-10.5-15.5-10.5-25.5 0-10 3.5-18.4 10.5-25.5 7.1-7 15.6-10.5 25.5-10.5zm0 64.7c7.9 0 14.7-2.8 20.3-8.4 5.6-5.6 8.4-12.4 8.4-20.3 0-7.9-2.8-14.7-8.4-20.3-5.6-5.6-12.4-8.4-20.3-8.4-7.9 0-14.7 2.8-20.3 8.4-5.6 5.6-8.4 12.4-8.4 20.3 0 7.9 2.8 14.7 8.4 20.3 5.6 5.6 12.4 8.4 20.3 8.4z"/><path d="m479.7 40.2c2.2 0 4.3 0.5 6.7 1.6 4.3 2.2 6.7 5.8 6.7 11 0 5.2-2.2 9-6.7 11-2.2 1.1-4.3 1.6-6.7 1.6h-7.6v9.2h-3.6v-34.6h11.2zm-7.6 3.6v18.2h7.6c1.6 0 3.2-0.4 4.9-1.3 3.1-1.4 4.5-4.2 4.5-7.9 0-3.8-1.4-6.3-4.5-7.9-1.6-0.7-3.2-1.3-4.9-1.3h-7.6z" class="a"/><path d="m540.4 57.1c0 4.9-1.6 9-4.7 12.5-3.1 3.4-6.9 5.2-11.2 5.2-4.3 0-8.1-1.8-11.2-5.2-3.1-3.4-4.7-7.6-4.7-12.5V40.2h3.6v17c0 3.8 1.3 7.2 3.6 9.9 2.3 2.7 5.2 4.2 8.7 4.2 3.4 0 6.3-1.3 8.7-4 2.3-2.7 3.6-6 3.8-9.9V40.4h3.6v16.8z" class="a"/><path d="m576.5 51c4.3 1.8 6.5 5.4 6.5 11 0 5.2-2.2 8.8-6.5 11-2.2 1.1-4.5 1.6-6.7 1.6h-11.4-2.3v-34.6h14.6c1.8 0 3.2 0.4 4.7 1.3 2 1.1 2.9 2.9 2.9 5.2 0 2.3-0.5 3.8-1.8 4.5zm-16.8-7.2v5.6h11c1.6 0 2.7-0.4 3.2-1.3 0.4-0.5 0.5-0.9 0.5-1.6 0-1.1-0.5-2-1.6-2.3-0.7-0.4-1.4-0.4-2.2-0.4zm10.1 27.4c1.6 0 3.4-0.4 4.9-1.3 3.1-1.4 4.5-4.2 4.5-7.9 0-3.8-1.4-6.3-4.5-7.9-1.6-0.7-3.2-1.3-4.9-1.3h-10.1v18.2h10.1z" class="a"/><path d="m625.4 71.2v3.6H598.7V40.2h3.6v31z" class="a"/><path d="M644.8 74.8H641.2V40.2h3.6z" class="a"/><path d="m695.7 61.7c-1.3 4.2-3.4 7.6-6.5 10.1-3.2 2.5-6.9 3.8-10.8 3.8-4.9 0-9.2-1.8-12.6-5.2-3.4-3.6-5.2-7.8-5.2-12.6 0-4.9 1.8-9.2 5.2-12.6 3.4-3.4 7.8-5.2 12.6-5.2 4.2 0 7.8 1.3 11 3.8 3.2 2.5 5.4 6 6.5 10.3h-3.8c-0.9-3.2-2.7-5.8-5.1-7.6-2.5-2-5.4-2.9-8.5-2.9-4 0-7.4 1.4-10.1 4.2-2.7 2.7-4.2 6.1-4.2 10.1 0 4 1.4 7.4 4.2 10.1 2.7 2.7 6.1 4.2 10.1 4.2 3.1 0 6-0.9 8.5-2.7 2.5-1.8 4.2-4.2 5.2-7.4h3.4z" class="a"/><path d="m714.3 74.8h-3.6V40.2h3.6z" class="a"/><path d="m757.5 44.9c3.2 3.1 4.9 7.2 4.9 12.6 0 5.4-1.6 9.6-4.9 12.6-2.3 2.2-5.2 3.6-8.8 4.3-1.8 0.4-3.6 0.5-5.2 0.4h-11-2.5V40.2h5.1 8.3c2.2 0 4 0.2 5.4 0.4 3.8 0.7 6.7 2.2 8.8 4.3zm-2.5 22.6c2.5-2.3 3.6-5.6 3.6-9.9 0-4.3-1.3-7.6-3.6-9.9-1.8-1.6-4.3-2.9-7.2-3.4-1.6-0.4-2.9-0.4-4.2-0.4v0h-9.9V71h9.9c5.1 0 8.8-1.3 11.4-3.6z" class="a"/><path d="M815.4 74.8H811.1L796.8 47.8 782.5 74.8h-4.3l16.4-31v0l2.3-4.2 2.2 4z" class="a"/><path d="m858 44.9c3.2 3.1 4.9 7.2 4.9 12.6 0 5.4-1.6 9.6-4.9 12.6-2.3 2.2-5.2 3.6-8.8 4.3-1.8 0.4-3.6 0.5-5.2 0.4H832.9 830.4V40.2h5.1 8.3c2.2 0 4 0.2 5.4 0.4 3.6 0.7 6.5 2.2 8.8 4.3zm-2.5 22.6c2.5-2.3 3.6-5.6 3.6-9.9 0-4.3-1.3-7.6-3.6-9.9-1.8-1.6-4.3-2.9-7.2-3.4-1.6-0.4-2.9-0.4-4.2-0.4v0h-9.9V71h9.9c5.1 0 8.8-1.3 11.4-3.6z" class="a"/><path d="m531.1 123.3h-3.6V88.7h3.6z" class="a"/><path d="m578.3 87.1v36.3h-3.8v-21.3l-12.1 22-11.9-21.8v21.1h-3.8V87.1l15.9 28.5z" class="a"/><path d="m605.4 88.7c2.2 0 4.3 0.5 6.7 1.6 4.3 2.2 6.7 5.8 6.7 11 0 5.2-2.2 9-6.7 11-2.2 1.1-4.3 1.6-6.7 1.6h-7.6v9.2h-3.6V88.5h11.2zm-7.6 3.6v18.2h7.6c1.6 0 3.2-0.4 4.9-1.3 3.1-1.4 4.5-4.2 4.5-7.9 0-3.8-1.4-6.3-4.5-7.9-1.6-0.7-3.2-1.3-4.9-1.3h-7.6z" class="a"/><path d="m658.7 101.3c0 4.3-1.6 7.8-4.9 9.9-2 1.4-4 2.2-6 2.5l9.7 9.6h-5.2l-9.7-9.4-3.4-3.4h6.3c1.6 0 3.2-0.4 4.9-1.3 3.1-1.4 4.5-4.2 4.5-7.9 0-3.8-1.4-6.3-4.5-7.9-1.6-0.7-3.2-1.3-4.9-1.3h-7.6V123.2h-3.6V88.5h2.5 8.8c2.2 0 4.3 0.5 6.7 1.6 4.2 2.3 6.3 6 6.3 11.2z" class="a"/><path d="m701.2 92.3h-23.1v27.4h23.1v3.6H674.5V88.7h26.7zm-0.2 21.5h-20.2v-3.6h20.2z" class="a"/><path d="m734.1 99.7c2.3 0.9 4.3 2.3 5.8 4.5 1.4 2.2 2.3 4.5 2.3 7 0 3.4-1.3 6.3-3.8 8.8-2.5 2.5-5.4 3.6-9 3.6-3.4 0-6.3-1.3-8.8-3.6-2.5-2.3-3.8-5.4-3.8-9.2h3.6c0 2.7 0.9 5.1 2.7 6.7 1.8 1.6 3.8 2.5 6.3 2.5 2.5 0 4.7-0.9 6.5-2.7 1.8-1.8 2.7-3.8 2.7-6.3 0-2.5-0.9-4.5-2.7-6.3-1.8-1.8-4-2.7-6.5-2.7-1.8 0-3.4-0.5-4.7-1.8-0.2-0.2-0.4-0.4-0.4-0.4-1.4-1.4-2.2-3.1-2.2-5.1 0-2 0.7-3.6 2.2-5.1 1.4-1.4 3.1-2.2 5.1-2.2 3.6 0 6.3 2.2 7.9 6.7h-4.3c-0.2-0.7-0.4-1.3-0.9-2-0.7-0.7-1.6-1.1-2.5-1.1-1.1 0-1.8 0.4-2.5 1.1-0.7 0.7-1.1 1.6-1.1 2.5 0 0.9 0.4 1.8 1.1 2.5 0.7 0.7 1.6 1.1 2.5 1.1 1.6 0.4 3.1 0.7 4.5 1.3z" class="a"/><path d="M795.3 123.3H790.9L776.7 96.3 762.4 123.3h-4.3l16.4-31v0l2.3-4.2 2.2 4z" class="a"/></svg>