<svg xmlns="http://www.w3.org/2000/svg" height="100" width="100" viewBox="0 0 100 100"><path d="M5273.1 2400.1v-2c0-2.8-5-4-9.7-4s-9.7 1.3-9.7 4v2c0 1.8 0.7 3.6 2 4.9l5 4.9c0.3 0.3 0.4 0.6 0.4 1v6.4c0 0.4 0.2 0.7 0.6 0.8l2.9 0.9c0.5 0.1 1-0.2 1-0.8v-7.2c0-0.4 0.2-0.7 0.4-1l5.1-5C5272.4 2403.7 5273.1 2401.9 5273.1 2400.1zM5263.4 2400c-4.8 0-7.4-1.3-7.5-1.8v0c0.1-0.5 2.7-1.8 7.5-1.8 4.8 0 7.3 1.3 7.5 1.8C5270.7 2398.7 5268.2 2400 5263.4 2400z"/><path d="M5268.4 2410.3c-0.6 0-1 0.4-1 1 0 0.6 0.4 1 1 1h4.3c0.6 0 1-0.4 1-1 0-0.6-0.4-1-1-1H5268.4z"/><path d="M5272.7 2413.7h-4.3c-0.6 0-1 0.4-1 1 0 0.6 0.4 1 1 1h4.3c0.6 0 1-0.4 1-1C5273.7 2414.1 5273.3 2413.7 5272.7 2413.7z"/><path d="M5272.7 2417h-4.3c-0.6 0-1 0.4-1 1 0 0.6 0.4 1 1 1h4.3c0.6 0 1-0.4 1-1C5273.7 2417.5 5273.3 2417 5272.7 2417z"/><path d="M47.1 50.1c0-7.8 4.2-14.7 10.5-18.5v-11c0-1.4-1.1-2.5-2.5-2.5H5c-1.4 0-2.5 1.1-2.5 2.5v58.6c0 1.4 1.2 2.5 2.5 2.5h50.1c1.4 0 2.5-1.1 2.5-2.5V68.6C51.3 64.9 47.1 58 47.1 50.1zM40.9 68.9H17.6c-1.4 0-2.5-1.1-2.5-2.5 0-1.4 1.2-2.5 2.5-2.5h23.4c1.4 0 2.5 1.1 2.5 2.5C43.4 67.7 42.3 68.9 40.9 68.9zM15.1 50c0-1.4 1.2-2.5 2.5-2.5h17.8c1.4 0 2.5 1.1 2.5 2.5s-1.1 2.5-2.5 2.5H17.6C16.2 52.5 15.1 51.4 15.1 50zM40.9 36.2H17.6c-1.4 0-2.5-1.1-2.5-2.5 0-1.4 1.2-2.5 2.5-2.5h23.4c1.4 0 2.5 1.1 2.5 2.5C43.4 35 42.3 36.2 40.9 36.2z"/><path d="M95.2 68.1L83 58c1.3-2.3 2.1-5 2.1-7.9 0-9.1-7.4-16.5-16.5-16.5 -9.1 0-16.5 7.4-16.5 16.5 0 9.1 7.4 16.5 16.5 16.5 2.9 0 5.5-0.8 7.9-2.1l10 12.2c2.3 2.8 6.6 3 9.2 0.4C98.3 74.7 98.1 70.4 95.2 68.1zM67 56.4c-0.6 0-1.3-0.2-1.8-0.7l-4.2-4.2c-1-1-1-2.6 0-3.6 1-1 2.6-1 3.6 0l2.5 2.5 5.7-5.7c1-1 2.6-1 3.6 0 1 1 1 2.6 0 3.6l-7.5 7.5C68.2 56.2 67.6 56.4 67 56.4z"/></svg>